<svg width="1083" height="250" viewBox="0 0 1083 250" fill="none" xmlns="http://www.w3.org/2000/svg">
<g opacity="0.24">
<path d="M1157.31 -126C1061.16 -111.455 910.412 -82.0194 987.104 10.9013C1084.7 129.149 1323.2 98.1716 1217.27 189.439" stroke="#E2E8F0" stroke-width="1.5"/>
<path d="M1130.47 -104.537C1034.32 -89.9918 883.57 -60.5562 960.263 32.3644C1057.86 150.612 1296.35 119.635 1190.43 210.902" stroke="#E2E8F0" stroke-width="1.5"/>
<path d="M1102.36 -84.7732C1006.2 -70.2281 855.455 -40.7926 932.147 52.1281C1029.74 170.376 1268.24 139.398 1162.31 230.666" stroke="#E2E8F0" stroke-width="1.5"/>
<path d="M1072.83 -67.1899C976.676 -52.6449 825.926 -23.2093 902.619 69.7113C1000.21 187.959 1238.71 156.982 1132.79 248.249" stroke="#E2E8F0" stroke-width="1.5"/>
<path d="M1041.83 -52.3577C945.674 -37.8126 794.924 -8.37703 871.616 84.5436C969.212 202.792 1207.71 171.814 1101.78 263.081" stroke="#E2E8F0" stroke-width="1.5"/>
<path d="M1009.44 -40.8518C913.29 -26.3067 762.54 3.12883 839.232 96.0494C936.828 214.297 1175.32 183.32 1069.4 274.587" stroke="#E2E8F0" stroke-width="1.5"/>
<path d="M975.966 -33.0781C879.813 -18.5331 729.064 10.9025 805.756 103.823C903.352 222.071 1141.85 191.094 1035.92 282.361" stroke="#E2E8F0" stroke-width="1.5"/>
<path d="M941.833 -29.0732C845.68 -14.5282 694.93 14.9074 771.622 107.828C869.218 226.076 1107.71 195.098 1001.79 286.366" stroke="#E2E8F0" stroke-width="1.5"/>
<path d="M907.471 -28.4392C811.318 -13.8941 660.568 15.5414 737.26 108.462C834.856 226.71 1073.35 195.732 967.428 287" stroke="#E2E8F0" stroke-width="1.5"/>
<path d="M873.164 -30.4756C777.011 -15.9305 626.261 13.5051 702.953 106.426C800.55 224.674 1039.04 193.696 933.121 284.964" stroke="#E2E8F0" stroke-width="1.5"/>
<path d="M839.021 -34.3936C742.868 -19.8485 592.118 9.58708 668.81 102.508C766.406 220.756 1004.9 189.778 898.977 281.046" stroke="#E2E8F0" stroke-width="1.5"/>
<path d="M805.03 -39.4688C708.877 -24.9237 558.127 4.51189 634.82 97.4325C732.416 215.681 970.911 184.703 864.987 275.97" stroke="#E2E8F0" stroke-width="1.5"/>
<path d="M771.128 -45.1038C674.975 -30.5587 524.225 -1.12312 600.917 91.7975C698.514 210.046 937.008 179.068 831.085 270.335" stroke="#E2E8F0" stroke-width="1.5"/>
<path d="M737.241 -50.8335C641.088 -36.2884 490.338 -6.85286 567.031 86.0678C664.627 204.316 903.122 173.338 797.198 264.606" stroke="#E2E8F0" stroke-width="1.5"/>
<path d="M703.313 -56.3071C607.16 -41.7621 456.41 -12.3265 533.102 80.5941C630.698 198.842 869.193 167.865 763.269 259.132" stroke="#E2E8F0" stroke-width="1.5"/>
<path d="M669.305 -61.2676C573.152 -46.7225 422.402 -17.2869 499.095 75.6337C596.691 193.882 835.186 162.904 729.262 254.172" stroke="#E2E8F0" stroke-width="1.5"/>
<path d="M635.203 -65.532C539.05 -50.9869 388.3 -21.5513 464.993 71.3693C562.589 189.617 801.084 158.64 695.16 249.907" stroke="#E2E8F0" stroke-width="1.5"/>
<path d="M601.009 -68.9766C504.856 -54.4315 354.106 -24.9959 430.798 67.9247C528.395 186.173 766.889 155.195 660.966 246.463" stroke="#E2E8F0" stroke-width="1.5"/>
<path d="M566.524 -71.5542C470.372 -57.0091 319.622 -27.5736 396.314 65.3471C493.91 183.595 732.405 152.617 626.481 243.885" stroke="#E2E8F0" stroke-width="1.5"/>
<path d="M532.214 -73.5383C436.061 -58.9933 285.311 -29.5577 362.003 63.3629C459.6 181.611 698.094 150.633 592.171 241.901" stroke="#E2E8F0" stroke-width="1.5"/>
<path d="M497.879 -75.0269C401.726 -60.4818 250.976 -31.0462 327.668 61.8744C425.265 180.122 663.759 149.145 557.836 240.412" stroke="#E2E8F0" stroke-width="1.5"/>
<path d="M463.524 -75.9517C367.371 -61.4066 216.621 -31.971 293.313 60.9496C390.91 179.198 629.404 148.22 523.481 239.487" stroke="#E2E8F0" stroke-width="1.5"/>
<path d="M429.158 -76.2273C333.005 -61.6822 182.255 -32.2467 258.948 60.674C356.544 178.922 595.039 147.944 489.115 239.212" stroke="#E2E8F0" stroke-width="1.5"/>
<path d="M394.794 -75.7454C298.641 -61.2003 147.891 -31.7647 224.583 61.1559C322.18 179.404 560.674 148.426 454.751 239.694" stroke="#E2E8F0" stroke-width="1.5"/>
<path d="M360.454 -74.3621C264.301 -59.817 113.551 -30.3814 190.244 62.5392C287.84 180.787 526.334 149.81 420.411 241.077" stroke="#E2E8F0" stroke-width="1.5"/>
<path d="M326.176 -71.8843C230.023 -57.3392 79.2735 -27.9036 155.966 65.017C253.562 183.265 492.057 152.287 386.133 243.555" stroke="#E2E8F0" stroke-width="1.5"/>
<path d="M292.024 -68.04C195.871 -53.495 45.1211 -24.0594 121.813 68.8612C219.41 187.109 457.904 156.132 351.981 247.399" stroke="#E2E8F0" stroke-width="1.5"/>
<path d="M258.114 -62.437C161.961 -47.8919 11.2115 -18.4564 87.9037 74.4642C185.5 192.712 423.995 161.735 318.071 253.002" stroke="#E2E8F0" stroke-width="1.5"/>
<path d="M224.682 -54.5154C128.529 -39.9703 -22.2212 -10.5347 54.4711 82.3859C152.067 200.634 390.562 169.656 284.638 260.924" stroke="#E2E8F0" stroke-width="1.5"/>
<path d="M192.229 -43.9487C96.0757 -29.4037 -54.6743 0.0319064 22.018 92.9525C119.614 211.201 358.109 180.223 252.185 271.49" stroke="#E2E8F0" stroke-width="1.5"/>
</g>
</svg>
