<svg width="223" height="69" viewBox="0 0 223 69" fill="none" xmlns="http://www.w3.org/2000/svg">
<path d="M40.9071 58.1653C37.5309 64.7135 30.4109 69 23.1792 69C22.6315 69 22.0802 68.9749 21.5325 68.9246C14.6359 68.2928 9.27431 65.4818 5.13418 60.3265C1.4841 56.0329 -0.277889 50.4432 0.0355926 44.1679C0.482394 35.2754 4.90718 28.8529 9.59139 22.0534C11.5227 19.246 13.5225 16.3453 15.2485 13.2256C17.3419 9.44172 18.686 5.27373 19.3562 0.488242L19.4246 0L19.7525 0.366183C28.7966 10.5475 26.8905 18.1116 24.3394 20.9764C24.2133 21.12 24.0548 21.3821 23.889 21.6657C23.6512 22.0642 23.3846 22.513 23.0783 22.8468C23.0891 22.854 23.1035 22.8612 23.1143 22.8684C25.6366 21.2852 27.2941 19.2604 28.1841 16.672L28.3102 16.3094L28.5696 16.593C31.4162 19.7235 31.9675 23.3925 31.5351 25.7763C31.1099 28.1134 29.9893 29.6427 28.0111 30.5977C18.8949 35.7278 17.4248 40.1543 17.1906 43.8053C17.9545 48.8026 20.8479 51.6495 25.7952 52.2203C29.5353 52.1341 32.1657 50.9171 33.3656 48.7057C34.2051 47.1548 34.306 45.7834 33.6862 44.2541C32.6557 43.1447 31.6108 42.6027 30.4938 42.6027H30.4866C28.9408 42.6027 27.2653 43.633 25.2222 45.8408L25.0565 46.0167L24.8907 45.8408C23.6656 44.5556 24.0007 42.994 24.2746 41.741C24.3683 41.2959 24.4583 40.8759 24.4728 40.5133C24.5232 39.307 25.4276 37.4582 27.0599 36.2591C27.4995 35.9037 28.0544 35.6596 28.8255 35.3221C29.5101 35.0206 30.3605 34.6508 31.4486 34.0548C32.8251 33.3045 35.1744 31.4772 35.4662 27.6933L35.5023 27.2374L35.8446 27.5426C40.4603 31.6603 39.4875 35.4406 38.057 38.3018C43.2565 44.3546 44.2942 51.5849 40.9071 58.1653Z" fill="white"/>
<path d="M78.9342 21.0327V28.4075H73.2227V57.8843H63.6047V28.4075H57.916V21.0327H78.9342Z" fill="white"/>
<path d="M101.757 43.3166H89.8088V49.8493C89.8088 51.215 89.9078 52.0951 90.1058 52.4897C90.3038 52.8842 90.6846 53.0815 91.2481 53.0815C91.9487 53.0815 92.4132 52.8235 92.6417 52.3076C92.8854 51.7765 93.0072 50.7598 93.0072 49.2575V45.2741H101.757V47.5048C101.757 49.3713 101.635 50.8053 101.392 51.8068C101.163 52.8083 100.615 53.8782 99.7467 55.0163C98.8786 56.1543 97.7744 57.0117 96.4341 57.5884C95.1091 58.1498 93.4413 58.4305 91.4309 58.4305C89.4814 58.4305 87.7603 58.1498 86.2677 57.5884C84.7751 57.0269 83.61 56.2606 82.7723 55.2894C81.9499 54.303 81.3787 53.2256 81.0589 52.0572C80.739 50.8736 80.5791 49.1588 80.5791 46.913V38.1041C80.5791 35.4637 80.937 33.3848 81.6529 31.8673C82.3687 30.3347 83.5415 29.1663 85.1711 28.362C86.8008 27.5426 88.6741 27.1329 90.7912 27.1329C93.3804 27.1329 95.5127 27.626 97.188 28.6124C98.8786 29.5836 100.059 30.881 100.729 32.5047C101.414 34.1132 101.757 36.3818 101.757 39.3105V43.3166ZM92.5046 38.4V36.1921C92.5046 34.6291 92.4209 33.62 92.2533 33.1648C92.0858 32.7095 91.7431 32.4819 91.2253 32.4819C90.5856 32.4819 90.1896 32.6792 90.0373 33.0737C89.885 33.4531 89.8088 34.4926 89.8088 36.1921V38.4H92.5046Z" fill="white"/>
<path d="M123.643 37.3302H115.465V35.6914C115.465 34.2953 115.381 33.4152 115.213 33.051C115.061 32.6716 114.665 32.4819 114.025 32.4819C113.508 32.4819 113.119 32.6564 112.86 33.0054C112.601 33.3393 112.472 33.8476 112.472 34.5305C112.472 35.4561 112.533 36.139 112.655 36.5791C112.792 37.004 113.18 37.4744 113.82 37.9903C114.475 38.5062 115.807 39.2574 117.818 40.2437C120.498 41.5488 122.258 42.7779 123.095 43.9312C123.933 45.0845 124.352 46.7612 124.352 48.9616C124.352 51.4199 124.032 53.2788 123.392 54.5382C122.753 55.7826 121.679 56.7462 120.171 57.429C118.678 58.0967 116.874 58.4305 114.756 58.4305C112.411 58.4305 110.401 58.0663 108.725 57.338C107.065 56.6096 105.923 55.6232 105.298 54.3789C104.674 53.1346 104.362 51.2529 104.362 48.7339V47.2772H112.54V49.1892C112.54 50.8129 112.639 51.8675 112.837 52.3531C113.051 52.8387 113.462 53.0815 114.071 53.0815C114.726 53.0815 115.183 52.9221 115.442 52.6035C115.701 52.2696 115.83 51.5792 115.83 50.5321C115.83 49.0906 115.663 48.1877 115.328 47.8235C114.977 47.4593 113.188 46.3819 109.959 44.5913C107.248 43.0738 105.595 41.7005 105.001 40.4714C104.407 39.227 104.11 37.7551 104.11 36.0555C104.11 33.6428 104.43 31.8673 105.07 30.7292C105.71 29.576 106.791 28.6883 108.314 28.0661C109.852 27.4439 111.634 27.1329 113.66 27.1329C115.67 27.1329 117.376 27.3908 118.777 27.9068C120.194 28.4075 121.275 29.0752 122.021 29.9098C122.783 30.7444 123.24 31.5183 123.392 32.2315C123.56 32.9447 123.643 34.0601 123.643 35.5775V37.3302Z" fill="white"/>
<path d="M136.551 23.6503V28.4075H139.042V33.1875H136.551V49.3485C136.551 51.3364 136.65 52.4441 136.848 52.6718C137.062 52.8994 137.922 53.0132 139.43 53.0132V57.8843H135.706C133.604 57.8843 132.104 57.8008 131.205 57.6339C130.307 57.4518 129.515 57.0497 128.829 56.4275C128.144 55.7902 127.718 55.0694 127.55 54.2651C127.383 53.4457 127.299 51.5337 127.299 48.5291V33.1875H125.311V28.4075H127.299V23.6503H136.551Z" fill="white"/>
<path d="M147.22 50.3728V57.8843H140.252V50.3728H147.22Z" fill="white"/>
<path d="M171.848 21.0327V45.6611C171.848 48.4532 171.757 50.4183 171.574 51.5564C171.391 52.6794 170.851 53.8402 169.952 55.039C169.053 56.2226 167.865 57.1255 166.388 57.7477C164.926 58.3547 163.197 58.6582 161.202 58.6582C158.994 58.6582 157.044 58.294 155.354 57.5656C153.663 56.8372 152.399 55.8888 151.561 54.7203C150.723 53.5519 150.228 52.3228 150.076 51.0329C149.924 49.7279 149.848 46.9965 149.848 42.8386V21.0327H159.466V48.6657C159.466 50.2742 159.55 51.306 159.717 51.7613C159.9 52.2014 160.258 52.4214 160.791 52.4214C161.4 52.4214 161.788 52.1786 161.956 51.693C162.139 51.1922 162.23 50.0238 162.23 48.1877V21.0327H171.848Z" fill="white"/>
<path d="M197.047 21.0327V57.8843H188.617L183.614 41.1315V57.8843H175.572V21.0327H183.614L189.005 37.6261V21.0327H197.047Z" fill="white"/>
<path d="M223 34.5988H213.382V31.2528C213.382 29.1435 213.291 27.8233 213.108 27.2922C212.925 26.7611 212.491 26.4955 211.806 26.4955C211.212 26.4955 210.808 26.7231 210.595 27.1784C210.381 27.6336 210.275 28.8021 210.275 30.6837V48.3698C210.275 50.0238 210.381 51.1164 210.595 51.6475C210.808 52.1634 211.234 52.4214 211.874 52.4214C212.575 52.4214 213.047 52.1255 213.291 51.5337C213.549 50.9419 213.679 49.7886 213.679 48.0739V43.7036H211.737V38.1041H223V57.8843H216.946L216.055 55.2439C215.4 56.382 214.57 57.2393 213.565 57.816C212.575 58.3774 211.402 58.6582 210.046 58.6582C208.432 58.6582 206.917 58.2712 205.5 57.4973C204.099 56.7082 203.033 55.737 202.302 54.5838C201.571 53.4305 201.114 52.2241 200.931 50.9646C200.748 49.69 200.657 47.7855 200.657 45.2514V34.3029C200.657 30.7824 200.847 28.2254 201.228 26.6321C201.609 25.0388 202.698 23.582 204.495 22.2618C206.307 20.9264 208.645 20.2587 211.509 20.2587C214.326 20.2587 216.664 20.8354 218.522 21.9887C220.38 23.1419 221.591 24.5152 222.155 26.1086C222.718 27.6867 223 29.9857 223 33.0054V34.5988Z" fill="white"/>
</svg>
