<svg width="163" height="51" viewBox="0 0 163 51" fill="none" xmlns="http://www.w3.org/2000/svg">
<path d="M29.9007 42.9918C27.4329 47.8317 22.2286 51 16.9426 51C16.5423 51 16.1393 50.9814 15.739 50.9443C10.698 50.4773 6.77898 48.3996 3.75279 44.5892C1.08479 41.4156 -0.203121 37.2841 0.0260161 32.6458C0.352602 26.0732 3.58686 21.3261 7.01075 16.3004C8.42244 14.2253 9.88417 12.0813 11.1457 9.77544C12.676 6.97867 13.6584 3.89797 14.1482 0.360874L14.1983 0L14.4379 0.270657C21.0487 7.79594 19.6554 13.3868 17.7907 15.5043C17.6985 15.6105 17.5826 15.8042 17.4615 16.0138C17.2877 16.3083 17.0928 16.64 16.8689 16.8868C16.8768 16.8921 16.8873 16.8974 16.8952 16.9027C18.7389 15.7325 19.9504 14.236 20.6009 12.3228L20.6931 12.0548L20.8827 12.2644C22.9634 14.5783 23.3664 17.2901 23.0503 19.052C22.7395 20.7795 21.9204 21.9098 20.4745 22.6157C13.8111 26.4075 12.7365 29.6792 12.5653 32.3778C13.1237 36.0715 15.2386 38.1757 18.8548 38.5976C21.5886 38.5339 23.5112 37.6344 24.3883 35.9998C25.0019 34.8535 25.0757 33.8399 24.6227 32.7095C23.8694 31.8896 23.1056 31.4889 22.2892 31.4889H22.2839C21.154 31.4889 19.9293 32.2505 18.436 33.8824L18.3148 34.0124L18.1937 33.8824C17.2982 32.9324 17.5431 31.7781 17.7433 30.8521C17.8118 30.523 17.8776 30.2126 17.8882 29.9446C17.925 29.053 18.5861 27.6865 19.7792 26.8002C20.1005 26.5375 20.5061 26.3571 21.0697 26.1077C21.5702 25.8848 22.1917 25.6114 22.9871 25.171C23.9932 24.6164 25.7104 23.2658 25.9238 20.469L25.9501 20.132L26.2003 20.3575C29.5741 23.4011 28.863 26.1952 27.8174 28.31C31.6179 32.7838 32.3765 38.1279 29.9007 42.9918Z" fill="#00A2DE"/>
<path d="M57.6963 15.5459V20.9969H53.5216V42.784H46.4913V20.9969H42.3333V15.5459H57.6963Z" fill="#EE7427"/>
<path d="M74.3786 32.0166H65.645V36.8451C65.645 37.8546 65.7174 38.5051 65.8621 38.7967C66.0068 39.0883 66.2851 39.2341 66.6971 39.2341C67.2092 39.2341 67.5487 39.0435 67.7157 38.6621C67.8938 38.2696 67.9829 37.5181 67.9829 36.4077V33.4635H74.3786V35.1122C74.3786 36.4918 74.2895 37.5517 74.1114 38.292C73.9444 39.0322 73.5436 39.823 72.9091 40.6642C72.2745 41.5054 71.4674 42.1391 70.4877 42.5653C69.5192 42.9803 68.3001 43.1878 66.8306 43.1878C65.4057 43.1878 64.1477 42.9803 63.0567 42.5653C61.9657 42.1503 61.114 41.5839 60.5017 40.8661C59.9006 40.137 59.4831 39.3407 59.2493 38.4771C59.0155 37.6022 58.8986 36.3348 58.8986 34.6748V28.1639C58.8986 26.2123 59.1602 24.6757 59.6835 23.5541C60.2067 22.4213 61.0639 21.5577 62.2551 20.9632C63.4463 20.3576 64.8156 20.0547 66.3631 20.0547C68.2556 20.0547 69.8142 20.4192 71.0388 21.1483C72.2745 21.8661 73.1373 22.8251 73.6271 24.0252C74.1281 25.2141 74.3786 26.8909 74.3786 29.0556V32.0166ZM67.6155 28.3826V26.7507C67.6155 25.5954 67.5543 24.8496 67.4318 24.5131C67.3093 24.1766 67.0589 24.0084 66.6804 24.0084C66.2128 24.0084 65.9233 24.1542 65.812 24.4458C65.7007 24.7262 65.645 25.4945 65.645 26.7507V28.3826H67.6155Z" fill="#EE7427"/>
<path d="M90.3762 27.5919H84.398V26.3806C84.398 25.3487 84.3367 24.6982 84.2143 24.429C84.1029 24.1486 83.8135 24.0084 83.3459 24.0084C82.9674 24.0084 82.6835 24.1374 82.4943 24.3953C82.305 24.6421 82.2104 25.0178 82.2104 25.5225C82.2104 26.2067 82.2549 26.7114 82.344 27.0367C82.4442 27.3507 82.7281 27.6984 83.1956 28.0798C83.6743 28.4611 84.6484 29.0163 86.1179 29.7454C88.0773 30.71 89.3631 31.6185 89.9754 32.4709C90.5877 33.3233 90.8939 34.5627 90.8939 36.189C90.8939 38.006 90.6601 39.3799 90.1925 40.3109C89.7249 41.2306 88.9401 41.9428 87.8379 42.4475C86.7469 42.941 85.4277 43.1878 83.8803 43.1878C82.1659 43.1878 80.6964 42.9186 79.4718 42.3802C78.2583 41.8419 77.4234 41.1128 76.9669 40.1931C76.5105 39.2734 76.2823 37.8826 76.2823 36.0207V34.944H82.2605V36.3572C82.2605 37.5573 82.3328 38.3369 82.4776 38.6958C82.6334 39.0547 82.934 39.2341 83.3793 39.2341C83.858 39.2341 84.192 39.1164 84.3813 38.8808C84.5705 38.6341 84.6651 38.1238 84.6651 37.3498C84.6651 36.2843 84.5427 35.617 84.2978 35.3478C84.0417 35.0786 82.7336 34.2823 80.3735 32.9588C78.3919 31.8372 77.184 30.8221 76.7498 29.9136C76.3157 28.9939 76.0986 27.9059 76.0986 26.6497C76.0986 24.8664 76.3324 23.5541 76.7999 22.7129C77.2675 21.8605 78.0579 21.2044 79.1712 20.7445C80.2956 20.2846 81.5981 20.0547 83.0787 20.0547C84.5482 20.0547 85.7951 20.2454 86.8193 20.6267C87.8546 20.9969 88.6451 21.4904 89.1906 22.1073C89.7472 22.7241 90.0812 23.2962 90.1925 23.8233C90.315 24.3505 90.3762 25.1748 90.3762 26.2964V27.5919Z" fill="#EE7427"/>
<path d="M99.8111 17.4806V20.9969H101.631V24.5299H99.8111V36.475C99.8111 37.9443 99.8835 38.7631 100.028 38.9313C100.184 39.0995 100.813 39.1837 101.915 39.1837V42.784H99.1932C97.6569 42.784 96.5604 42.7223 95.9035 42.5989C95.2467 42.4644 94.6678 42.1671 94.1669 41.7073C93.6659 41.2362 93.3542 40.7034 93.2317 40.109C93.1093 39.5033 93.048 38.0901 93.048 35.8693V24.5299H91.5952V20.9969H93.048V17.4806H99.8111Z" fill="#EE7427"/>
<path d="M107.61 37.2321V42.784H102.516V37.2321H107.61Z" fill="#EE7427"/>
<path d="M125.611 15.5459V33.7495C125.611 35.8132 125.544 37.2657 125.411 38.1069C125.277 38.9369 124.882 39.7949 124.225 40.681C123.568 41.5559 122.7 42.2232 121.62 42.6831C120.551 43.1317 119.288 43.356 117.829 43.356C116.215 43.356 114.79 43.0868 113.554 42.5485C112.319 42.0101 111.395 41.3091 110.782 40.4455C110.17 39.5818 109.808 38.6733 109.697 37.72C109.586 36.7554 109.53 34.7365 109.53 31.6633V15.5459H116.56V35.9703C116.56 37.1592 116.621 37.9219 116.744 38.2583C116.877 38.5836 117.139 38.7462 117.529 38.7462C117.974 38.7462 118.258 38.5668 118.38 38.2079C118.514 37.8377 118.581 36.9741 118.581 35.617V15.5459H125.611Z" fill="#EE7427"/>
<path d="M144.03 15.5459V42.784H137.868L134.211 30.4015V42.784H128.333V15.5459H134.211L138.152 27.8106V15.5459H144.03Z" fill="#EE7427"/>
<path d="M163 25.573H155.97V23.0999C155.97 21.5408 155.903 20.565 155.769 20.1725C155.636 19.7799 155.318 19.5836 154.818 19.5836C154.383 19.5836 154.088 19.7519 153.932 20.0884C153.777 20.4248 153.699 21.2885 153.699 22.6793V35.7516C153.699 36.9741 153.777 37.7817 153.932 38.1742C154.088 38.5556 154.4 38.7462 154.868 38.7462C155.38 38.7462 155.725 38.5275 155.903 38.0901C156.092 37.6527 156.187 36.8003 156.187 35.5328V32.3026H154.767V28.1639H163V42.784H158.575L157.924 40.8324C157.445 41.6736 156.838 42.3073 156.103 42.7335C155.38 43.1485 154.522 43.356 153.532 43.356C152.352 43.356 151.244 43.07 150.209 42.498C149.184 41.9148 148.405 41.1969 147.871 40.3445C147.336 39.4921 147.002 38.6004 146.869 37.6695C146.735 36.7274 146.668 35.3197 146.668 33.4467V25.3543C146.668 22.7522 146.808 20.8623 147.086 19.6846C147.364 18.5069 148.16 17.4302 149.474 16.4544C150.799 15.4674 152.507 14.9739 154.6 14.9739C156.66 14.9739 158.369 15.4001 159.727 16.2525C161.085 17.1049 161.97 18.12 162.382 19.2976C162.794 20.4641 163 22.1633 163 24.3953V25.573Z" fill="#EE7427"/>
</svg>
