<svg width="94" height="152" viewBox="0 0 94 152" fill="none" xmlns="http://www.w3.org/2000/svg">
<path d="M89.7394 127.634C82.3984 141.925 66.9172 151.279 51.1932 151.279C50.0023 151.279 48.8036 151.224 47.6128 151.115C32.6174 149.736 20.9595 143.601 11.9576 132.351C4.02113 122.981 0.189993 110.782 0.871602 97.0872C1.84309 77.6809 11.464 63.6648 21.649 48.8261C25.8483 42.6994 30.1965 36.3691 33.9492 29.5608C38.5011 21.3032 41.4235 12.2072 42.8807 1.7637L43.0295 0.698196L43.7425 1.49733C63.4073 23.7162 59.2628 40.2237 53.7159 46.4757C53.4417 46.7891 53.097 47.361 52.7366 47.98C52.2195 48.8496 51.6398 49.8289 50.9738 50.5575C50.9973 50.5732 51.0287 50.5889 51.0522 50.6046C56.5364 47.1495 60.1403 42.7308 62.0754 37.082L62.3496 36.2908L62.9137 36.9097C69.1031 43.7414 70.3018 51.7484 69.3616 56.9506C68.4371 62.0509 66.0006 65.3884 61.6994 67.4724C41.8779 78.6681 38.6813 88.3281 38.1721 96.2959C39.833 107.202 46.1242 113.414 56.8811 114.66C65.0134 114.472 70.7326 111.816 73.3416 106.99C75.167 103.606 75.3864 100.613 74.0388 97.2752C71.7982 94.8543 69.5261 93.6713 67.0974 93.6713H67.0817C63.7207 93.6713 60.0776 95.9198 55.6354 100.738L55.275 101.122L54.9146 100.738C52.2509 97.9333 52.9795 94.5253 53.5749 91.791C53.7786 90.8195 53.9745 89.9029 54.0058 89.1116C54.1155 86.4791 56.082 82.4443 59.631 79.8276C60.5868 79.0519 61.7934 78.5192 63.47 77.7828C64.9586 77.1246 66.8075 76.3177 69.1736 75.0171C72.1664 73.3797 77.2745 69.3919 77.9091 61.1342L77.9875 60.1392L78.7318 60.8052C88.7679 69.7915 86.6525 78.0413 83.5422 84.2855C94.8475 97.4946 97.1039 113.273 89.7394 127.634Z" fill="#EF802F"/>
</svg>
