<svg width="33" height="32" viewBox="0 0 33 32" fill="none" xmlns="http://www.w3.org/2000/svg">
<path d="M8.21835 16.2898C8.1489 16.1027 8.1489 15.8969 8.21835 15.7098C8.89476 14.0697 10.0429 12.6673 11.5173 11.6806C12.9917 10.6938 14.7259 10.167 16.5 10.167C18.2741 10.167 20.0083 10.6938 21.4827 11.6806C22.9571 12.6673 24.1053 14.0697 24.7817 15.7098C24.8511 15.8969 24.8511 16.1027 24.7817 16.2898C24.1053 17.9299 22.9571 19.3323 21.4827 20.3191C20.0083 21.3058 18.2741 21.8326 16.5 21.8326C14.7259 21.8326 12.9917 21.3058 11.5173 20.3191C10.0429 19.3323 8.89476 17.9299 8.21835 16.2898Z" stroke="#314158" stroke-width="1.5" stroke-linecap="round" stroke-linejoin="round"/>
<path d="M16.5 18.4997C17.8807 18.4997 19 17.3804 19 15.9997C19 14.619 17.8807 13.4997 16.5 13.4997C15.1193 13.4997 14 14.619 14 15.9997C14 17.3804 15.1193 18.4997 16.5 18.4997Z" stroke="#314158" stroke-width="1.5" stroke-linecap="round" stroke-linejoin="round"/>
</svg>
